<?xml version="1.0" encoding="iso-8859-1"?>
<!-- Generator: Adobe Illustrator 19.0.0, SVG Export Plug-In . SVG Version: 6.00 Build 0)  -->
<svg version="1.1" id="Capa_1" xmlns="http://www.w3.org/2000/svg" xmlns:xlink="http://www.w3.org/1999/xlink" x="0px" y="0px"
	 viewBox="0 0 512 512" style="enable-background:new 0 0 512 512;" xml:space="preserve">
<linearGradient id="SVGID_1_" gradientUnits="userSpaceOnUse" x1="256" y1="471.288" x2="256" y2="44.712" gradientTransform="matrix(1 0 0 -1 0 514)">
	<stop  offset="0" style="stop-color:#2AF598"/>
	<stop  offset="1" style="stop-color:#009EFD"/>
</linearGradient>
<path style="fill:url(#SVGID_1_);" d="M512,323.288c0-33.084-26.916-60-60-60h-13.635C463.369,230.166,476,198.539,476,168.876
	c0-36.816-12.123-68.554-35.058-91.78C419.046,54.923,388.88,42.712,356,42.712c-43.052,0-72.165,16.623-89.005,30.568
	c-3.682,3.049-7.432,6.563-10.995,10.344c-3.562-3.782-7.313-7.296-10.995-10.344C228.165,59.335,199.052,42.712,156,42.712
	c-32.88,0-63.046,12.211-84.942,34.384C48.123,100.322,36,132.06,36,168.876c0,29.656,12.646,61.288,37.648,94.412H60
	c-33.084,0-60,26.916-60,60v110h40v36h40v-36h352v36h40v-36h40V323.288z M126,263.288v-20c0-11.028,8.972-20,20-20h70
	c11.028,0,20,8.972,20,20v20H126z M276,243.288c0-11.028,8.972-20,20-20h70c11.028,0,20,8.972,20,20v20H276V243.288z M156,82.712
	c11.211,0,21.117,1.524,29.828,3.976c36.792,14.289,70.732,68.857,70.732,68.857s32.313-52.888,67.252-68.165
	c9.266-2.859,19.953-4.668,32.188-4.668c47.851,0,80,34.627,80,86.164c0,14.904-5.277,31.499-15.536,49.284
	c-9.527-20.565-30.35-34.872-54.464-34.872h-70c-15.355,0-29.376,5.805-40,15.327c-10.624-9.522-24.645-15.327-40-15.327h-70
	c-24.109,0-44.929,14.301-54.458,34.858C81.286,200.361,76,183.765,76,168.876C76,117.339,108.149,82.712,156,82.712z M452,303.288
	c11.028,0,20,8.972,20,20v70H40v-70c0-11.028,8.972-20,20-20H452"/>
<g>
</g>
<g>
</g>
<g>
</g>
<g>
</g>
<g>
</g>
<g>
</g>
<g>
</g>
<g>
</g>
<g>
</g>
<g>
</g>
<g>
</g>
<g>
</g>
<g>
</g>
<g>
</g>
<g>
</g>
</svg>
