<svg height="512" viewBox="0 0 128 128" width="512" xmlns="http://www.w3.org/2000/svg" xmlns:xlink="http://www.w3.org/1999/xlink"><linearGradient id="a" gradientUnits="userSpaceOnUse" x1="115.719" x2="12.281" y1="115.719" y2="12.281"><stop offset="0" stop-color="#73c3f9"/><stop offset="1" stop-color="#ffc839"/></linearGradient><path d="m98.06 92.706a1.751 1.751 0 0 1 -1.75 1.75h-6.12a1.75 1.75 0 0 1 0-3.5h6.12a1.751 1.751 0 0 1 1.75 1.75zm-43.728-46.44a1.751 1.751 0 0 0 -1.7-.865l-14.611 1.589a1.75 1.75 0 0 0 .379 3.479l10.66-1.159-6.333 8.652a1.75 1.75 0 0 0 0 2.068l6.333 8.652-10.66-1.159a1.759 1.759 0 0 0 -1.791 1.034l-4.326 9.812-4.326-9.812a1.757 1.757 0 0 0 -1.791-1.034l-10.659 1.159 6.334-8.652a1.753 1.753 0 0 0 0-2.068l-6.334-8.652 10.659 1.159a1.76 1.76 0 0 0 1.791-1.034l5.928-13.443a1.75 1.75 0 0 0 -3.2-1.412l-5.414 12.271-13.332-1.451a1.75 1.75 0 0 0 -1.6 2.774l7.921 10.826-7.922 10.817a1.75 1.75 0 0 0 1.6 2.774l13.332-1.45 5.411 12.271a1.75 1.75 0 0 0 3.2 0l5.419-12.271 13.332 1.45a1.75 1.75 0 0 0 1.6-2.774l-7.924-10.817 7.92-10.821a1.749 1.749 0 0 0 .104-1.913zm73.668-20.98v77.428a1.75 1.75 0 0 1 -1.75 1.75h-124.5a1.75 1.75 0 0 1 -1.75-1.75v-77.428a1.75 1.75 0 0 1 1.75-1.75h124.5a1.75 1.75 0 0 1 1.75 1.75zm-3.5 69.17h-11.625a1.75 1.75 0 0 1 0-3.5h11.625v-63.92h-121v63.92h70.125a1.75 1.75 0 0 1 0 3.5h-70.125v6.508h121zm-22.369-33.789v-19.217a1.75 1.75 0 0 1 1.75-1.75h10.369a3.755 3.755 0 0 1 3.75 3.75v5.609a3.755 3.755 0 0 1 -3.75 3.75h-8.619v7.858a1.75 1.75 0 0 1 -3.5 0zm3.5-11.358h8.619a.251.251 0 0 0 .25-.25v-5.609a.251.251 0 0 0 -.25-.25h-8.619zm-37.112 11.891a1.75 1.75 0 0 0 3.332 0l6.184-19.217a1.75 1.75 0 1 0 -3.335-1.069l-4.515 14.041-4.519-14.041a1.75 1.75 0 0 0 -3.332 1.072zm21.606 1.214a1.75 1.75 0 0 0 1.75-1.75v-19.214a1.75 1.75 0 1 0 -3.5 0v19.217a1.75 1.75 0 0 0 1.75 1.75zm-12.006 7.75v6.378a1.75 1.75 0 0 1 -1.75 1.75h-12.369a1.75 1.75 0 0 1 -1.75-1.75v-6.378a1.75 1.75 0 0 1 1.75-1.75h12.369a1.75 1.75 0 0 1 1.75 1.75zm-3.5 1.75h-8.869v2.878h8.869zm23.441-1.75v6.378a1.751 1.751 0 0 1 -1.75 1.75h-12.37a1.751 1.751 0 0 1 -1.75-1.75v-6.378a1.751 1.751 0 0 1 1.75-1.75h12.37a1.751 1.751 0 0 1 1.75 1.75zm-3.5 1.75h-8.87v2.878h8.87zm21.69 6.378h-12.369a1.75 1.75 0 0 1 -1.75-1.75v-6.378a1.75 1.75 0 0 1 1.75-1.75h12.369a1.75 1.75 0 0 1 1.75 1.75v6.378a1.75 1.75 0 0 1 -1.75 1.75zm-1.75-6.378h-8.869v2.878h8.869z" fill="url(#a)"/></svg>